<?xml version="1.0" standalone="no"?>
<!DOCTYPE svg PUBLIC "-//W3C//DTD SVG 20010904//EN"
 "http://www.w3.org/TR/2001/REC-SVG-20010904/DTD/svg10.dtd">
<svg version="1.0" xmlns="http://www.w3.org/2000/svg"
 width="1695.000000pt" height="840.000000pt" viewBox="0 0 1695.000000 840.000000"
 preserveAspectRatio="xMidYMid meet">

<g transform="translate(0.000000,840.000000) scale(0.100000,-0.100000)"
fill="#000000" stroke="none">
<path d="M3990 8272 l0 -128 -1720 -993 -1720 -993 0 -2008 0 -2009 78 -44
c42 -24 814 -470 1715 -990 902 -521 1643 -947 1648 -947 5 0 9 -36 9 -80 l0
-80 40 0 39 0 3 81 3 80 1565 904 c861 497 1570 907 1575 912 6 5 24 15 42 22
18 7 38 19 44 27 6 8 18 14 26 14 7 0 19 5 26 11 7 6 41 27 77 48 l65 37 0
2014 0 2013 -1693 978 c-930 537 -1703 984 -1717 993 -24 16 -25 19 -25 141
l0 125 -40 0 -40 0 0 -128z m0 -1227 c0 -34 1 -35 40 -35 39 0 40 1 40 35 0
19 4 35 9 35 5 0 573 -326 1262 -724 l1254 -724 0 -1482 0 -1483 -1260 -727
-1260 -728 -3 109 -3 109 -39 0 -40 0 0 -109 0 -109 -1260 727 -1259 726 0
1485 0 1485 1252 722 c689 397 1255 723 1260 723 4 0 7 -16 7 -35z"/>
<path d="M3990 6720 l0 -40 40 0 40 0 0 40 0 40 -40 0 -40 0 0 -40z"/>
<path d="M3990 6411 c0 -17 -11 -20 -97 -26 -430 -28 -804 -149 -1138 -369
-335 -220 -589 -517 -770 -898 -231 -490 -286 -1000 -160 -1494 153 -600 515
-1096 1017 -1396 498 -297 1109 -389 1683 -253 243 58 526 181 732 318 109 73
225 162 231 177 2 4 -24 41 -56 82 -52 66 -97 117 -216 245 l-29 32 94 99
c255 265 415 587 475 957 24 148 24 401 0 549 -59 362 -220 688 -470 953 l-89
94 30 32 c137 148 263 299 263 317 0 12 -212 167 -310 226 -265 161 -582 271
-903 314 -43 5 -100 10 -127 10 -61 0 -80 7 -80 31 0 15 -7 19 -40 19 -33 0
-40 -3 -40 -19z m252 -820 c578 -100 1055 -561 1173 -1136 58 -282 28 -592
-83 -857 -162 -389 -501 -699 -902 -826 -100 -32 -258 -62 -322 -62 -34 0 -38
3 -38 25 0 23 -4 25 -40 25 -38 0 -40 -2 -40 -30 0 -16 -3 -30 -7 -30 -5 0
-57 5 -118 10 -646 61 -1161 520 -1301 1160 -27 121 -27 458 0 580 62 285 196
531 401 735 223 223 480 356 795 410 119 20 349 18 482 -4z"/>
<path d="M3992 5223 l3 -208 38 -3 37 -3 0 210 0 211 -40 0 -40 0 2 -207z"/>
<path d="M3990 4720 l0 -40 40 0 40 0 0 40 0 40 -40 0 -40 0 0 -40z"/>
<path d="M3990 4265 c0 -103 -4 -165 -10 -165 -5 0 -10 -20 -10 -45 l0 -45
206 0 205 0 -3 43 -3 42 -152 3 -153 3 0 164 0 165 -40 0 -40 0 0 -165z"/>
<path d="M2634 4086 c-3 -8 -4 -27 -2 -43 3 -24 8 -28 41 -31 l37 -3 0 45 c0
46 0 46 -35 46 -22 0 -38 -6 -41 -14z"/>
<path d="M2970 4055 l0 -45 205 0 205 0 0 45 0 45 -205 0 -205 0 0 -45z"/>
<path d="M3634 4086 c-3 -8 -4 -27 -2 -43 3 -24 8 -28 41 -31 l37 -3 0 45 c0
46 0 46 -35 46 -22 0 -38 -6 -41 -14z"/>
<path d="M4637 4093 c-4 -3 -7 -24 -7 -45 0 -38 0 -38 40 -38 l40 0 0 45 c0
44 0 45 -33 45 -19 0 -37 -3 -40 -7z"/>
<path d="M4970 4055 l0 -45 203 2 202 3 0 40 0 40 -202 3 -203 2 0 -45z"/>
<path d="M3990 3720 l0 -40 40 0 40 0 0 40 0 40 -40 0 -40 0 0 -40z"/>
<path d="M3990 3225 l0 -205 40 0 40 0 0 205 0 205 -40 0 -40 0 0 -205z"/>
<path d="M1640 4055 c0 -45 0 -45 35 -45 35 0 35 0 35 45 0 45 0 45 -35 45
-35 0 -35 0 -35 -45z"/>
<path d="M5964 4086 c-3 -8 -4 -27 -2 -43 l3 -28 205 0 205 0 0 40 0 40 -203
3 c-168 2 -203 0 -208 -12z"/>
<path d="M3992 1723 c3 -36 5 -38 41 -41 l37 -3 0 40 0 41 -41 0 -40 0 3 -37z"/>
<path d="M12315 6064 c-207 -32 -434 -125 -590 -242 -337 -251 -559 -671 -640
-1211 -64 -426 -28 -932 92 -1306 208 -646 657 -1023 1267 -1064 736 -49 1283
350 1510 1103 76 251 108 494 108 816 0 247 -15 411 -58 619 -92 445 -308 817
-608 1043 -97 73 -291 169 -411 202 -194 55 -468 71 -670 40z m380 -819 c150
-32 279 -127 363 -270 52 -89 106 -249 134 -401 19 -104 22 -155 22 -409 0
-312 -7 -386 -60 -585 -88 -337 -297 -520 -594 -520 -456 0 -678 401 -657
1184 10 360 64 588 182 767 133 198 361 286 610 234z"/>
<path d="M8210 5615 l0 -395 676 -2 675 -3 -335 -425 c-331 -420 -335 -424
-320 -450 9 -14 82 -122 162 -240 l147 -215 170 -6 c190 -7 246 -21 342 -84
109 -72 158 -175 158 -330 0 -91 -3 -106 -31 -165 -76 -161 -231 -240 -469
-240 -122 0 -215 19 -299 60 -103 51 -198 159 -245 277 -10 26 -23 47 -27 45
-10 -2 -678 -388 -706 -407 -15 -10 -13 -18 23 -89 154 -307 410 -524 742
-632 319 -103 716 -102 1026 1 253 85 460 228 602 414 107 141 195 361 220
547 17 128 6 368 -21 469 -32 120 -117 286 -197 385 -115 140 -308 281 -477
346 -42 16 -76 31 -76 34 1 3 144 187 320 410 l319 405 1 343 0 342 -1190 0
-1190 0 0 -395z"/>
<path d="M14620 5988 c0 -13 -34 -491 -75 -1063 -41 -572 -75 -1041 -75 -1042
0 -2 284 -3 631 -3 676 0 693 -1 793 -52 65 -33 141 -112 172 -181 27 -57 29
-71 29 -177 0 -110 -1 -118 -33 -182 -55 -112 -154 -183 -302 -214 -94 -20
-307 -14 -390 11 -151 46 -255 135 -323 275 l-43 87 -357 -208 c-197 -114
-360 -209 -363 -212 -8 -7 61 -140 115 -222 56 -85 193 -229 281 -296 119 -90
307 -177 469 -219 195 -49 486 -67 680 -40 531 73 917 372 1059 820 45 144 57
227 56 410 -1 182 -15 282 -65 435 -131 408 -469 687 -934 771 -58 10 -174 18
-328 21 l-239 6 7 101 c4 55 12 169 19 251 l11 150 673 3 672 2 0 395 0 395
-1070 0 -1070 0 0 -22z"/>
<path d="M0 4055 l0 -45 190 0 190 0 0 45 0 45 -190 0 -190 0 0 -45z"/>
<path d="M7630 4056 l0 -46 41 0 40 0 -3 43 c-3 41 -4 42 -40 45 l-38 3 0 -45z"/>
<path d="M7967 4093 c-4 -3 -7 -24 -7 -45 l0 -38 205 0 205 0 0 45 0 45 -198
0 c-109 0 -202 -3 -205 -7z"/>
</g>
</svg>
